<?xml version="1.0" encoding="UTF-8" standalone="no"?>
<!-- Created with Inkscape (http://www.inkscape.org/) -->

<svg
   width="7.5mm"
   height="7.5mm"
   viewBox="0 0 7.5 7.5"
   version="1.1"
   id="svg1"
   inkscape:version="1.3 (0e150ed6c4, 2023-07-21)"
   sodipodi:docname="FriendsIcon.svg"
   xmlns:inkscape="http://www.inkscape.org/namespaces/inkscape"
   xmlns:sodipodi="http://sodipodi.sourceforge.net/DTD/sodipodi-0.dtd"
   xmlns="http://www.w3.org/2000/svg"
   xmlns:svg="http://www.w3.org/2000/svg">
  <sodipodi:namedview
     id="namedview1"
     pagecolor="#000000"
     bordercolor="#000000"
     borderopacity="0.25"
     inkscape:showpageshadow="2"
     inkscape:pageopacity="0.0"
     inkscape:pagecheckerboard="0"
     inkscape:deskcolor="#d1d1d1"
     inkscape:document-units="mm"
     inkscape:zoom="26.198204"
     inkscape:cx="17.940161"
     inkscape:cy="19.524239"
     inkscape:window-width="1920"
     inkscape:window-height="1137"
     inkscape:window-x="1272"
     inkscape:window-y="-8"
     inkscape:window-maximized="1"
     inkscape:current-layer="layer1" />
  <defs
     id="defs1" />
  <g
     inkscape:label="Warstwa 1"
     inkscape:groupmode="layer"
     id="layer1">
    <rect
       style="fill:#808080;stroke-width:0.142451"
       id="rect1"
       width="1.3077914"
       height="1.2342367"
       x="1.8509502"
       y="2.5606344"
       ry="0.25642633"
       rx="0.28261" />
    <rect
       style="fill:#808080;stroke-width:0.142451"
       id="rect2"
       width="1.9253595"
       height="1.7872627"
       x="1.5078568"
       y="3.8461449"
       rx="0.056521997"
       ry="0.051285267" />
    <rect
       style="fill:#808080;stroke-width:0.142465"
       id="rect3-6"
       width="0.9356389"
       height="1.8991128"
       x="1.0169921"
       y="3.6861374"
       rx="0.056473453"
       ry="0.051338721"
       transform="matrix(0.99598528,0.0895172,-0.10852522,0.9940937,0,0)"
       inkscape:transform-center-x="-0.048436821"
       inkscape:transform-center-y="-0.14649698" />
    <rect
       style="fill:#808080;stroke-width:0.142465"
       id="rect3-6-6"
       width="0.9356389"
       height="1.8991128"
       x="2.2131927"
       y="5.4912992"
       rx="0.056473453"
       ry="0.051338721"
       transform="matrix(0.99598528,0.0895172,-0.10852522,0.9940937,0,0)"
       inkscape:transform-center-x="-0.048436749"
       inkscape:transform-center-y="-0.14649672" />
    <rect
       style="fill:#808080;stroke-width:0.142492"
       id="rect3-6-6-7"
       width="0.93388617"
       height="1.9034088"
       x="1.3528126"
       y="6.083602"
       rx="0.056367658"
       ry="0.051454853"
       transform="matrix(0.98714353,-0.15983633,0.19297633,0.98120341,0,0)"
       inkscape:transform-center-x="-0.0027188244"
       inkscape:transform-center-y="-0.15292764" />
    <rect
       style="fill:#808080;stroke-width:0.165729"
       id="rect1-6"
       width="1.4717193"
       height="1.4844846"
       x="4.0944076"
       y="2.3374274"
       ry="0.30841807"
       rx="0.31803438" />
    <rect
       style="fill:#808080;stroke-width:0.165729"
       id="rect2-3"
       width="2.1666977"
       height="2.1496394"
       x="3.7083087"
       y="3.8835816"
       rx="0.063606873"
       ry="0.061683614" />
    <rect
       style="fill:#808080;stroke-width:0.165746"
       id="rect3-4"
       width="1.0497644"
       height="2.2910986"
       x="4.4229522"
       y="5.1020308"
       rx="0.063361853"
       ry="0.061935272"
       transform="matrix(0.96467583,-0.26343981,0.243522,0.96989537,0,0)" />
    <rect
       style="fill:#808080;stroke-width:0.165731"
       id="rect3-6-8"
       width="1.0535188"
       height="2.2824914"
       x="3.7200074"
       y="3.3934524"
       rx="0.063588463"
       ry="0.06170259"
       transform="matrix(0.99541789,0.0956202,-0.10161523,0.99482378,0,0)"
       inkscape:transform-center-x="-0.054508135"
       inkscape:transform-center-y="-0.17620003" />
    <rect
       style="fill:#808080;stroke-width:0.165731"
       id="rect3-6-6-1"
       width="1.0535188"
       height="2.2824914"
       x="4.4176612"
       y="5.6685023"
       rx="0.063588463"
       ry="0.06170259"
       transform="matrix(0.99541789,0.0956202,-0.10161523,0.99482378,0,0)"
       inkscape:transform-center-x="-0.054508087"
       inkscape:transform-center-y="-0.17619987" />
    <rect
       style="fill:#808080;stroke-width:0.165733"
       id="rect3-6-6-7-7"
       width="1.0528548"
       height="2.284018"
       x="3.6378551"
       y="6.9115477"
       rx="0.063548386"
       ry="0.061743867"
       transform="matrix(0.98535402,-0.17052112,0.18097688,0.98348735,0,0)"
       inkscape:transform-center-x="-0.0030597502"
       inkscape:transform-center-y="-0.18393447" />
    <rect
       style="fill:#ffffff;stroke-width:0.165729"
       id="rect1-6-6"
       width="1.4717193"
       height="1.4844846"
       x="2.9857292"
       y="2.151042"
       ry="0.30841807"
       rx="0.31803438" />
    <rect
       style="fill:#ffffff;stroke-width:0.165729"
       id="rect2-3-5"
       width="2.1666977"
       height="2.1496394"
       x="2.5996304"
       y="3.6971962"
       rx="0.063606873"
       ry="0.061683614" />
    <rect
       style="fill:#ffffff;stroke-width:0.165746"
       id="rect3-4-8"
       width="1.0497644"
       height="2.2910986"
       x="4.0050583"
       y="4.5154033"
       rx="0.063361853"
       ry="0.061935272"
       transform="matrix(0.98188017,-0.18950285,0.16924648,0.98557376,0,0)" />
    <rect
       style="fill:#ffffff;stroke-width:0.165731"
       id="rect3-6-8-2"
       width="1.0535188"
       height="2.2824914"
       x="1.9488534"
       y="3.4194074"
       rx="0.063588463"
       ry="0.06170259"
       transform="matrix(0.99541789,0.0956202,-0.10161523,0.99482378,0,0)"
       inkscape:transform-center-x="-0.054508135"
       inkscape:transform-center-y="-0.17620003" />
    <rect
       style="fill:#ffffff;stroke-width:0.165731"
       id="rect3-6-6-1-8"
       width="1.0535188"
       height="2.2824914"
       x="3.2043109"
       y="5.5876198"
       rx="0.063588463"
       ry="0.06170259"
       transform="matrix(0.99541789,0.0956202,-0.10161523,0.99482378,0,0)"
       inkscape:transform-center-x="-0.054508087"
       inkscape:transform-center-y="-0.17619987" />
    <rect
       style="fill:#ffffff;stroke-width:0.165733"
       id="rect3-6-6-7-7-4"
       width="1.0528548"
       height="2.284018"
       x="2.4935858"
       y="6.5133657"
       rx="0.063548386"
       ry="0.061743867"
       transform="matrix(0.98535402,-0.17052112,0.18097688,0.98348735,0,0)"
       inkscape:transform-center-x="-0.0030597502"
       inkscape:transform-center-y="-0.18393447" />
  </g>
</svg>
