<?xml version="1.0" encoding="UTF-8" standalone="no"?>
<!-- Created with Inkscape (http://www.inkscape.org/) -->

<svg
   width="7.5mm"
   height="7.5mm"
   viewBox="0 0 7.5 7.5"
   version="1.1"
   id="svg1"
   xml:space="preserve"
   inkscape:version="1.3 (0e150ed6c4, 2023-07-21)"
   sodipodi:docname="MessageIcon.svg"
   xmlns:inkscape="http://www.inkscape.org/namespaces/inkscape"
   xmlns:sodipodi="http://sodipodi.sourceforge.net/DTD/sodipodi-0.dtd"
   xmlns="http://www.w3.org/2000/svg"
   xmlns:svg="http://www.w3.org/2000/svg"><sodipodi:namedview
     id="namedview1"
     pagecolor="#000000"
     bordercolor="#000000"
     borderopacity="0.25"
     inkscape:showpageshadow="2"
     inkscape:pageopacity="0.0"
     inkscape:pagecheckerboard="0"
     inkscape:deskcolor="#d1d1d1"
     inkscape:document-units="mm"
     inkscape:zoom="22.627417"
     inkscape:cx="16.396038"
     inkscape:cy="13.854873"
     inkscape:window-width="1280"
     inkscape:window-height="961"
     inkscape:window-x="3192"
     inkscape:window-y="66"
     inkscape:window-maximized="1"
     inkscape:current-layer="layer1" /><defs
     id="defs1" /><g
     inkscape:label="Warstwa 1"
     inkscape:groupmode="layer"
     id="layer1"><rect
       style="fill:#ffffff;stroke-width:0.264583"
       id="rect1"
       width="6.5645404"
       height="4.2720008"
       x="0.49486533"
       y="1.6461847"
       rx="0.1"
       ry="0.1" /><rect
       style="fill:#000000;stroke-width:0.264583"
       id="rect2"
       width="0.26309344"
       height="3.3032842"
       x="0.23386084"
       y="1.8591936"
       rx="0.099208511"
       ry="0.070086271" /><rect
       style="fill:#666666;stroke-width:0.400913"
       id="rect3"
       width="0.53735429"
       height="4.1020641"
       x="-1.4574028"
       y="1.7498413"
       rx="0.22534211"
       ry="0.41818699"
       transform="matrix(0.75311423,-0.65788978,0.84246033,0.53875838,0,0)" /><rect
       style="fill:#666666;stroke-width:0.382171"
       id="rect3-5"
       width="0.51511341"
       height="3.8884418"
       x="-5.7671752"
       y="-3.6079278"
       rx="0.21601529"
       ry="0.39640912"
       transform="matrix(-0.72732304,-0.68629526,-0.82278235,0.56835659,0,0)" /><path
       style="fill:#666666;stroke-width:0.263159"
       d="m 6.5246661,1.7390808 0.1462893,-0.093704 0.2905469,-1.35e-5 0.039382,0.00918 0.030088,0.019351 0.018675,0.025462 0.013486,0.040741 v 0.1262948 l -0.00103,0.071296 -0.1442142,0.1283328 z"
       id="path3"
       sodipodi:nodetypes="ccccccccccc" /><path
       style="fill:#666666;stroke-width:0.275391"
       d="m 1.0748696,1.7379354 -0.15864472,-0.094625 -0.32741505,0.00103 -0.0303788,0.00823 -0.0326293,0.019541 -0.0202522,0.025712 -0.014625,0.041141 v 0.1275361 l 0.001117,0.071997 0.15639437,0.1295941 z"
       id="path3-5" /><rect
       style="fill:#666666;stroke-width:0.162492"
       id="rect4"
       width="2.1590769"
       height="2.09464"
       x="1.4650662"
       y="3.5742769"
       rx="0.014507184"
       ry="0.0068637831"
       transform="matrix(0.94588682,-0.32449673,0.30216342,0.95325614,0,0)" /><rect
       style="fill:#ffffff;stroke-width:0.0510718"
       id="rect4-8"
       width="0.66875166"
       height="0.66805506"
       x="2.2430987"
       y="4.302125"
       rx="0.0044934498"
       ry="0.0021891042"
       transform="matrix(0.94214413,-0.33520806,0.29229001,0.95632973,0,0)" /><path
       style="fill:#666666;stroke-width:0.264583"
       d="m 0.57980958,1.6464111 -0.0310059,0.0062 -0.0186034,0.012402 -0.0227378,0.024805 -0.007235,0.018603 -0.002066,0.023771 z"
       id="path4" /><path
       style="fill:#666666;stroke-width:0.282387"
       d="m 6.949446,1.6443439 0.038071,0.00575 0.022842,0.011506 0.027919,0.023012 0.00888,0.017258 0.00254,0.022053 z"
       id="path4-8" /></g></svg>
