<?xml version="1.0" encoding="UTF-8" standalone="no"?>
<!-- Created with Inkscape (http://www.inkscape.org/) -->

<svg
   width="7.5mm"
   height="7.5mm"
   viewBox="0 0 7.5 7.5"
   version="1.1"
   id="svg1"
   inkscape:version="1.3 (0e150ed6c4, 2023-07-21)"
   sodipodi:docname="TradeIcon.svg"
   xmlns:inkscape="http://www.inkscape.org/namespaces/inkscape"
   xmlns:sodipodi="http://sodipodi.sourceforge.net/DTD/sodipodi-0.dtd"
   xmlns="http://www.w3.org/2000/svg"
   xmlns:svg="http://www.w3.org/2000/svg">
  <sodipodi:namedview
     id="namedview1"
     pagecolor="#000000"
     bordercolor="#000000"
     borderopacity="0.25"
     inkscape:showpageshadow="2"
     inkscape:pageopacity="0.0"
     inkscape:pagecheckerboard="0"
     inkscape:deskcolor="#d1d1d1"
     inkscape:document-units="mm"
     inkscape:zoom="5.6568543"
     inkscape:cx="16.617009"
     inkscape:cy="18.296388"
     inkscape:window-width="1280"
     inkscape:window-height="961"
     inkscape:window-x="3192"
     inkscape:window-y="66"
     inkscape:window-maximized="1"
     inkscape:current-layer="g1" />
  <defs
     id="defs1" />
  <g
     inkscape:label="Warstwa 1"
     inkscape:groupmode="layer"
     id="layer1">
    <g
       id="g1">
      <path
         style="fill:#ffffff;stroke-width:0.200648"
         d="M 2.7278935,0.49277846 C 2.7038475,1.3770615 2.7014435,2.5434004 2.7014435,2.5434004 L 0.92426838,1.5757514 Z"
         id="path6-6" />
      <rect
         style="fill:#ffffff;stroke-width:0.200648"
         id="rect6-9"
         width="3.1421626"
         height="0.99182743"
         x="-5.4946866"
         y="1.0582764"
         transform="scale(-1,1)" />
      <path
         style="fill:#ffffff;stroke-width:0.419565"
         d="m 5.3538459,2.0496167 0.1591035,0.034508 0.13077,0.065319 L 5.9466668,2.2850126 6.2910264,2.4292083 6.513334,2.598053 6.5547449,2.4871329 6.5373089,2.2850134 6.4675654,2.0693357 6.3542313,1.7920361 6.1602569,1.4752983 5.9401288,1.2423667 5.6393591,1.0661274 5.3538459,1.0575003 Z"
         id="path7" />
      <path
         style="fill:#ffffff;stroke-width:0.202902"
         d="M 4.8272252,6.9585249 C 4.8497191,5.9918704 4.851968,4.7168865 4.851968,4.7168865 l 1.6624648,1.057786 z"
         id="path6-6-0" />
      <rect
         style="fill:#ffffff;stroke-width:0.202902"
         id="rect6-9-2"
         width="2.9393473"
         height="1.0842166"
         x="2.2390187"
         y="-6.3403511"
         transform="scale(1,-1)" />
      <path
         style="fill:#ffffff;stroke-width:0.415535"
         d="M 2.3249426,5.2566664 2.18218,5.2189438 2.0648408,5.1475395 1.793008,4.9993427 1.4840163,4.841715 1.284541,4.6571424 1.247384,4.7783941 1.263029,4.999342 1.32561,5.2351101 l 0.1016938,0.3031301 0.1740521,0.3462421 0.1975196,0.2546295 0.2698788,0.192656 0.2561892,0.00943 z"
         id="path7-3" />
    </g>
  </g>
</svg>
